<svg xmlns="http://www.w3.org/2000/svg" viewBox="0 0 520 520">
  <defs>
    <linearGradient id="fanA" x1="0" y1="0" x2="1" y2="1"><stop offset="0%" stop-color="#ffffff" stop-opacity=".9"/><stop offset="100%" stop-color="#c4d4ea" stop-opacity=".4"/></linearGradient>
    <linearGradient id="fanB" x1="0" y1="0" x2="1" y2="1"><stop offset="0%" stop-color="#e8e0ff" stop-opacity=".7"/><stop offset="100%" stop-color="#aebfdd" stop-opacity=".35"/></linearGradient>
    <linearGradient id="gEdge2" x1="0" y1="0" x2="1" y2="1">
      <stop offset="0%"  stop-color="#bfeaff"/>
      <stop offset="22%" stop-color="#d7c8ff"/>
      <stop offset="45%" stop-color="#ffd6ec"/>
      <stop offset="65%" stop-color="#fff0c2"/>
      <stop offset="82%" stop-color="#c9ffe6"/>
      <stop offset="100%" stop-color="#bfe2ff"/></linearGradient>
    <radialGradient id="hole" cx="50%" cy="50%" r="50%"><stop offset="0%" stop-color="#f4f8ff"/><stop offset="60%" stop-color="#d7e4f5"/><stop offset="100%" stop-color="#b9cae3"/></radialGradient>
    <radialGradient id="fanShadow" cx="50%" cy="50%" r="50%"><stop offset="0%" stop-color="#9fb0c8" stop-opacity=".5"/><stop offset="100%" stop-color="#9fb0c8" stop-opacity="0"/></radialGradient>
    <filter id="fsb" x="-50%" y="-50%" width="200%" height="200%"><feGaussianBlur stdDeviation="9"/></filter>
  </defs>
  <ellipse cx="260" cy="430" rx="170" ry="30" fill="url(#fanShadow)" filter="url(#fsb)"/>
  <g transform="translate(0,-15)">
    <polygon points="320.0,250.0 460.0,250.0 456.9,285.2 319.1,260.6" fill="url(#fanA)" stroke="url(#gEdge2)" stroke-width="1" opacity=".7"/><polygon points="317.6,266.9 451.9,306.3 439.0,339.3 313.7,276.8" fill="url(#fanB)" stroke="url(#gEdge2)" stroke-width="1" opacity=".7"/><polygon points="310.5,282.4 428.3,358.1 406.6,386.1 304.0,290.8" fill="url(#fanA)" stroke="url(#gEdge2)" stroke-width="1" opacity=".7"/><polygon points="299.3,295.3 391.0,401.1 362.3,421.9 290.7,301.6" fill="url(#fanB)" stroke="url(#gEdge2)" stroke-width="1" opacity=".7"/><polygon points="284.9,304.6 343.1,431.9 309.7,443.7 274.9,308.1" fill="url(#fanA)" stroke="url(#gEdge2)" stroke-width="1" opacity=".7"/><polygon points="268.5,309.4 288.5,448.0 253.1,449.9 257.9,310.0" fill="url(#fanB)" stroke="url(#gEdge2)" stroke-width="1" opacity=".7"/><polygon points="251.5,309.4 231.5,448.0 197.1,439.9 241.1,307.0" fill="url(#fanA)" stroke="url(#gEdge2)" stroke-width="1" opacity=".7"/><polygon points="235.1,304.6 176.9,431.9 146.2,414.4 225.9,299.3" fill="url(#fanB)" stroke="url(#gEdge2)" stroke-width="1" opacity=".7"/><polygon points="220.7,295.3 129.0,401.1 104.5,375.7 213.3,287.7" fill="url(#fanA)" stroke="url(#gEdge2)" stroke-width="1" opacity=".7"/><polygon points="209.5,282.4 91.7,358.1 75.3,326.8 204.6,273.0" fill="url(#fanB)" stroke="url(#gEdge2)" stroke-width="1" opacity=".7"/><polygon points="202.4,266.9 68.1,306.3 61.2,271.7 200.4,256.5" fill="url(#fanA)" stroke="url(#gEdge2)" stroke-width="1" opacity=".7"/><polygon points="200.0,250.0 60.0,250.0 63.1,214.8 200.9,239.4" fill="url(#fanB)" stroke="url(#gEdge2)" stroke-width="1" opacity=".7"/><polygon points="202.4,233.1 68.1,193.7 81.0,160.7 206.3,223.2" fill="url(#fanA)" stroke="url(#gEdge2)" stroke-width="1" opacity=".7"/><polygon points="209.5,217.6 91.7,141.9 113.4,113.9 216.0,209.2" fill="url(#fanB)" stroke="url(#gEdge2)" stroke-width="1" opacity=".7"/><polygon points="220.7,204.7 129.0,98.9 157.7,78.1 229.3,198.4" fill="url(#fanA)" stroke="url(#gEdge2)" stroke-width="1" opacity=".7"/><polygon points="235.1,195.4 176.9,68.1 210.3,56.3 245.1,191.9" fill="url(#fanB)" stroke="url(#gEdge2)" stroke-width="1" opacity=".7"/><polygon points="251.5,190.6 231.5,52.0 266.9,50.1 262.1,190.0" fill="url(#fanA)" stroke="url(#gEdge2)" stroke-width="1" opacity=".7"/><polygon points="268.5,190.6 288.5,52.0 322.9,60.1 278.9,193.0" fill="url(#fanB)" stroke="url(#gEdge2)" stroke-width="1" opacity=".7"/><polygon points="284.9,195.4 343.1,68.1 373.8,85.6 294.1,200.7" fill="url(#fanA)" stroke="url(#gEdge2)" stroke-width="1" opacity=".7"/><polygon points="299.3,204.7 391.0,98.9 415.5,124.3 306.7,212.3" fill="url(#fanB)" stroke="url(#gEdge2)" stroke-width="1" opacity=".7"/><polygon points="310.5,217.6 428.3,141.9 444.7,173.2 315.4,227.0" fill="url(#fanA)" stroke="url(#gEdge2)" stroke-width="1" opacity=".7"/><polygon points="317.6,233.1 451.9,193.7 458.8,228.3 319.6,243.5" fill="url(#fanB)" stroke="url(#gEdge2)" stroke-width="1" opacity=".7"/>
    <circle cx="260" cy="250" r="58" fill="url(#hole)" opacity=".92"/>
    <circle cx="260" cy="250" r="58" fill="none" stroke="url(#gEdge2)" stroke-width="2"/>
    <ellipse cx="244" cy="232" rx="18" ry="9" fill="#ffffff" opacity=".8"/>
  </g>
</svg>
