<svg xmlns="http://www.w3.org/2000/svg" viewBox="0 0 120 120">

  <defs>
    <linearGradient id="iris1" x1="0" y1="0" x2="1" y2="1">
      <stop offset="0" stop-color="#9ff0ff"/>
      <stop offset=".45" stop-color="#4f8cff"/>
      <stop offset="1" stop-color="#7c5cff"/>
    </linearGradient>
    <linearGradient id="iris2" x1="0" y1="1" x2="1" y2="0">
      <stop offset="0" stop-color="#2d5df4"/>
      <stop offset=".55" stop-color="#62c9ff"/>
      <stop offset="1" stop-color="#bdf2ff"/>
    </linearGradient>
    <linearGradient id="iris3" x1="0" y1="0" x2="0" y2="1">
      <stop offset="0" stop-color="#bff3ff"/>
      <stop offset=".5" stop-color="#5e8bff"/>
      <stop offset="1" stop-color="#9b6bff"/>
    </linearGradient>
    <radialGradient id="darkSpot1" cx="78%" cy="22%" r="60%">
      <stop offset="0" stop-color="#5e8bff" stop-opacity=".55"/>
      <stop offset=".5" stop-color="#2d5df4" stop-opacity=".25"/>
      <stop offset="1" stop-color="#05070d" stop-opacity="0"/>
    </radialGradient>
    <radialGradient id="darkSpot2" cx="18%" cy="85%" r="55%">
      <stop offset="0" stop-color="#7c5cff" stop-opacity=".4"/>
      <stop offset="1" stop-color="#05070d" stop-opacity="0"/>
    </radialGradient>
    <radialGradient id="darkSpot3" cx="50%" cy="50%" r="70%">
      <stop offset="0" stop-color="#62e0ff" stop-opacity=".35"/>
      <stop offset="1" stop-color="#05070d" stop-opacity="0"/>
    </radialGradient>
    <linearGradient id="darkBase" x1="0" y1="0" x2="1" y2="1">
      <stop offset="0" stop-color="#02040a"/>
      <stop offset=".5" stop-color="#0a1430"/>
      <stop offset="1" stop-color="#040712"/>
    </linearGradient>
    <filter id="grain">
      <feTurbulence type="fractalNoise" baseFrequency="0.9" numOctaves="2" stitchTiles="stitch" result="n"/>
      <feColorMatrix in="n" type="matrix" values="0 0 0 0 1  0 0 0 0 1  0 0 0 0 1  0 0 0 .04 0"/>
    </filter>
    <filter id="soft" x="-100%" y="-100%" width="300%" height="300%"><feGaussianBlur stdDeviation="14"/></filter>
    <filter id="soft2" x="-100%" y="-100%" width="300%" height="300%"><feGaussianBlur stdDeviation="28"/></filter>
    <linearGradient id="glassEdge" x1="0" y1="0" x2="0" y2="1">
      <stop offset="0" stop-color="#fff" stop-opacity=".35"/>
      <stop offset="1" stop-color="#fff" stop-opacity="0"/>
    </linearGradient>
  </defs>

<circle cx="60" cy="60" r="46" fill="url(#iris1)" opacity=".10" filter="url(#soft)"/>
<g transform="rotate(0 60 60)"><path d="M60 60 C76 50 86 32 78 16 C68 30 58 46 60 60Z" fill="url(#iris1)" opacity="1"/></g><g transform="rotate(60 60 60)"><path d="M60 60 C76 50 86 32 78 16 C68 30 58 46 60 60Z" fill="url(#iris1)" opacity=".55"/></g><g transform="rotate(120 60 60)"><path d="M60 60 C76 50 86 32 78 16 C68 30 58 46 60 60Z" fill="url(#iris1)" opacity="1"/></g><g transform="rotate(180 60 60)"><path d="M60 60 C76 50 86 32 78 16 C68 30 58 46 60 60Z" fill="url(#iris1)" opacity=".55"/></g><g transform="rotate(240 60 60)"><path d="M60 60 C76 50 86 32 78 16 C68 30 58 46 60 60Z" fill="url(#iris1)" opacity="1"/></g><g transform="rotate(300 60 60)"><path d="M60 60 C76 50 86 32 78 16 C68 30 58 46 60 60Z" fill="url(#iris1)" opacity=".55"/></g>
<circle cx="60" cy="60" r="9" fill="#fff" opacity=".9"/>
</svg>